<svg width="20.000000" height="20.000000" viewBox="0 0 20 20" fill="none" xmlns="http://www.w3.org/2000/svg" xmlns:xlink="http://www.w3.org/1999/xlink">
	<desc>
			Created with Pixso.
	</desc>
	<defs/>
	<path id="Vector" d="M15 2L19 2C19.2652 2 19.5196 2.10535 19.7071 2.29291C19.8947 2.48041 20 2.7348 20 3L20 19C20 19.2652 19.8947 19.5196 19.7071 19.7071C19.5196 19.8947 19.2652 20 19 20L1 20C0.734802 20 0.480408 19.8947 0.292908 19.7071C0.105347 19.5196 0 19.2652 0 19L0 3C0 2.7348 0.105347 2.48041 0.292908 2.29291C0.480408 2.10535 0.734802 2 1 2L5 2L5 0L7 0L7 2L13 2L13 0L15 0L15 2ZM18 8L18 4L15 4L15 6L13 6L13 4L7 4L7 6L5 6L5 4L2 4L2 8L18 8ZM18 10L2 10L2 18L18 18L18 10ZM4 12L9 12L9 16L4 16L4 12Z" fill="#FFFFFF" fill-opacity="1.000000" fill-rule="nonzero"/>
</svg>
