<svg width="7.704681" height="17.190186" viewBox="0 0 7.70468 17.1902" fill="none" xmlns="http://www.w3.org/2000/svg" xmlns:xlink="http://www.w3.org/1999/xlink">
	<desc>
			Created with Pixso.
	</desc>
	<defs/>
	<path id="Vector" d="M4.02856 13.1643C3.77786 12.9459 3.57266 12.495 3.57266 12.1623L3.57266 0.604553C3.57266 0.272003 3.30066 0 2.96811 0L2.19266 0C1.86014 0 1.5881 0.272003 1.5881 0.604553L1.58798 12.1619C1.58798 12.4948 1.37463 12.9356 1.11401 13.1422C1.11401 13.1422 0 14.0243 0 14.8585C0 16.1462 1.13318 17.1902 2.53098 17.1902C3.92853 17.1902 5.06155 16.1461 5.06155 14.8585C5.06155 14.0644 4.02856 13.1642 4.02856 13.1642L4.02856 13.1643Z" fill="#FFFFFF" fill-opacity="1.000000" fill-rule="nonzero"/>
	<path id="Vector" d="M3.32162 3.35831C3.32162 3.69086 3.04962 3.96286 2.71704 3.96286L2.45227 3.96286C2.11972 3.96286 1.84769 3.69086 1.84769 3.35831L1.84756 0.867096C1.84756 0.534546 2.11957 0.262543 2.45215 0.262543L2.71692 0.262543C3.04947 0.262543 3.3215 0.534546 3.3215 0.867096L3.32162 3.35831Z" fill="#FFFFFF" fill-opacity="1.000000" fill-rule="nonzero"/>
	<path id="Vector" d="M6.5921 10.6011C6.5921 11.1722 6.12964 11.6348 5.55832 11.6348C4.98697 11.6348 4.52466 11.1723 4.52466 10.6011L5.54437 8.74048L6.5921 10.6011Z" fill="#FFFFFF" fill-opacity="1.000000" fill-rule="nonzero"/>
	<path id="Vector" d="M7.70468 12.2925C7.70135 12.624 7.43054 12.8898 7.09879 12.8866C6.76785 12.8836 6.50174 12.6127 6.5051 12.2811L7.10712 11.207L7.70468 12.2925Z" fill="#FFFFFF" fill-opacity="1.000000" fill-rule="nonzero"/>
	<path id="Vector" d="M7.48697 9.64084C7.48523 9.83838 7.32358 9.99695 7.12616 9.99493C6.92889 9.99307 6.7699 9.83154 6.77206 9.63416L7.13129 8.99368L7.48697 9.64084Z" fill="#FFFFFF" fill-opacity="1.000000" fill-rule="nonzero"/>
	<path id="Vector" d="M4.00699 15.3374C3.9873 15.3371 4.00443 15.337 4.04501 15.337C4.08505 15.337 3.99786 15.5813 3.85083 15.8795L3.80289 15.9766C3.6561 16.2749 3.31738 16.5191 3.05048 16.5191L2.5647 16.5191L2.07935 16.5191C1.81244 16.5191 1.47372 16.2749 1.32669 15.9766L1.27872 15.8795C1.13168 15.5813 1.04489 15.337 1.0856 15.337C1.12659 15.337 1.43207 15.337 1.76465 15.3372L3.43848 15.3375C3.77075 15.3375 4.02682 15.3374 4.00699 15.3374L4.00699 15.3374Z" fill="#FFFFFF" fill-opacity="1.000000" fill-rule="nonzero"/>
	<path id="Vector" d="M2.34479 15.0754C1.9595 15.0532 1.73917 14.9289 1.54202 14.5551C1.34488 14.1809 1.36859 14.0371 1.56747 13.5995L1.57965 13.601C2.04385 13.6841 2.17468 13.7482 2.36957 14.1196C2.56738 14.4931 2.54474 14.7455 2.34467 15.0751L2.34479 15.0754Z" fill="#FFFFFF" fill-opacity="1.000000" fill-rule="nonzero"/>
	<path id="Vector" d="M2.79636 14.0099C2.62466 14.0001 2.52649 13.9446 2.43875 13.7782C2.35101 13.6118 2.36148 13.5475 2.45026 13.3528L2.45535 13.3532C2.66214 13.3903 2.72055 13.4191 2.80692 13.5842C2.89478 13.7505 2.88474 13.8631 2.79568 14.0099L2.79636 14.0099Z" fill="#FFFFFF" fill-opacity="1.000000" fill-rule="nonzero"/>
	<path id="Vector" d="M3.01782 15.0754C2.8425 14.8602 2.80154 14.6825 2.90451 14.396C3.00806 14.1097 3.09589 14.0528 3.42484 13.9459L3.4295 13.9534C3.61111 14.2401 3.63992 14.3409 3.53812 14.6245C3.43527 14.9108 3.28983 15.0209 3.01782 15.0746L3.01782 15.0754Z" fill="#FFFFFF" fill-opacity="1.000000" fill-rule="nonzero"/>
</svg>
