<svg width="18.001526" height="17.570770" viewBox="0 0 18.0015 17.5708" fill="none" xmlns="http://www.w3.org/2000/svg" xmlns:xlink="http://www.w3.org/1999/xlink">
	<desc>
			Created with Pixso.
	</desc>
	<defs/>
	<path id="Vector" d="M0.932861 7.37585L8.61011 7.37585C9.53894 7.38254 10.4376 7.04599 11.1335 6.43073C11.8293 5.81546 12.2736 4.96487 12.3809 4.04224C12.4843 3.00604 12.1409 1.97479 11.4367 1.20752C10.7376 0.439941 9.74799 0.0017395 8.70978 0L6.63818 0C6.30499 0 5.99707 0.177856 5.83044 0.466339C5.66382 0.754974 5.66382 1.11053 5.83044 1.39917C5.99707 1.68765 6.30493 1.86551 6.63818 1.86551L8.70978 1.86551C9.23474 1.86618 9.73407 2.0932 10.08 2.48816C10.4258 2.88312 10.585 3.40796 10.5164 3.92856C10.4476 4.37518 10.2192 4.78168 9.87323 5.07242C9.5274 5.36331 9.08777 5.51855 8.63599 5.50958L0.932678 5.50958C0.599487 5.50958 0.291565 5.68729 0.124939 5.97592C-0.041687 6.26456 -0.041626 6.62 0.124939 6.9086C0.291565 7.1972 0.599487 7.37494 0.932678 7.37494L0.932861 7.37585Z" fill="#FFFFFF" fill-opacity="1.000000" fill-rule="nonzero"/>
	<path id="Vector" d="M17.9835 13.5294C17.8762 12.6068 17.4321 11.7563 16.7363 11.1412C16.0405 10.526 15.1421 10.1892 14.2133 10.1958L7.80011 10.1958C7.46692 10.1958 7.159 10.3736 6.99237 10.6622C6.82581 10.9508 6.82581 11.3064 6.99237 11.5948C7.159 11.8835 7.46692 12.0612 7.80011 12.0612L14.2386 12.0612C14.6904 12.0522 15.1301 12.2076 15.4759 12.4984C15.8218 12.7892 16.0503 13.1957 16.119 13.6422C16.1876 14.1628 16.0286 14.6877 15.6827 15.0826C15.3367 15.4777 14.8375 15.7046 14.3124 15.7054L12.2401 15.7054C11.9068 15.7054 11.5989 15.8831 11.4323 16.1718C11.2657 16.4602 11.2657 16.8158 11.4323 17.1044C11.5989 17.393 11.9068 17.5708 12.2401 17.5708L14.3115 17.5708C15.3501 17.5699 16.3405 17.1319 17.04 16.3642C17.744 15.5968 18.0871 14.5656 17.9833 13.5295L17.9835 13.5294Z" fill="#FFFFFF" fill-opacity="1.000000" fill-rule="nonzero"/>
	<path id="Vector" d="M5.74487 11.1295C5.74469 10.8819 5.64642 10.6447 5.47162 10.4697C5.29669 10.2947 5.05951 10.1961 4.81219 10.1958L0.932739 10.1958C0.599548 10.1958 0.291626 10.3736 0.125 10.6622C-0.0415649 10.9508 -0.0415649 11.3064 0.125 11.5948C0.291626 11.8835 0.599548 12.0612 0.932739 12.0612L4.81219 12.0612C5.05927 12.0609 5.2962 11.9626 5.47101 11.788C5.64575 11.6133 5.74432 11.3766 5.74487 11.1295L5.74487 11.1295Z" fill="#FFFFFF" fill-opacity="1.000000" fill-rule="nonzero"/>
	<path id="Vector" d="M12.7053 7.97824C12.7848 7.97824 12.8611 7.94662 12.9174 7.89038L13.5496 7.25821L13.5494 7.25821C14.4182 7.43045 15.3143 7.14145 15.9189 6.49417C16.5234 5.84689 16.7505 4.93323 16.5194 4.07822C16.4918 3.97427 16.4106 3.89313 16.3068 3.86554C15.4517 3.63452 14.5381 3.86166 13.8908 4.46609C13.2435 5.07065 12.9545 5.96677 13.1268 6.83554L12.4932 7.46582C12.4074 7.55167 12.3817 7.68063 12.4282 7.79272C12.4747 7.90485 12.584 7.97781 12.7053 7.97797L12.7053 7.97824Z" fill="#FFFFFF" fill-opacity="1.000000" fill-rule="nonzero"/>
	<path id="Vector" d="M6.23138 13.3244L5.59924 12.6922C5.48151 12.5785 5.29443 12.5803 5.17865 12.696C5.06293 12.8117 5.06134 12.9988 5.17505 13.1165L5.80682 13.7487L5.80682 13.7486C5.6441 14.5852 5.90576 15.448 6.5058 16.0532C7.12976 16.6707 8.52454 17.195 9.19977 16.5032L9.19995 16.5032C9.43066 15.6485 9.20367 14.7353 8.59967 14.0881C7.99548 13.4408 7.09991 13.1517 6.23138 13.3232L6.23138 13.3244Z" fill="#FFFFFF" fill-opacity="1.000000" fill-rule="nonzero"/>
</svg>
